<mxfile host="app.diagrams.net" modified="2021-12-27T08:03:52.796Z" agent="5.0 (Windows NT 10.0; Win64; x64) AppleWebKit/537.36 (KHTML, like Gecko) Chrome/96.0.4664.110 Safari/537.36" etag="2G6yLb74RZJXdurJNC1H" version="16.1.0" type="github">
  <diagram id="3Ykqca3MS-R-D_RdiYnE" name="Page-1">
    <mxGraphModel dx="1038" dy="547" grid="1" gridSize="10" guides="1" tooltips="1" connect="1" arrows="1" fold="1" page="1" pageScale="1" pageWidth="827" pageHeight="1169" math="0" shadow="0">
      <root>
        <mxCell id="0" />
        <mxCell id="1" parent="0" />
        <mxCell id="YdYl9NV35ADIAqtEzGCp-1" value="&lt;font face=&quot;Georgia&quot;&gt;çš„&lt;/font&gt;" style="rounded=0;whiteSpace=wrap;html=1;fillColor=#dae8fc;strokeColor=#6c8ebf;" vertex="1" parent="1">
          <mxGeometry x="340" y="80" width="120" height="60" as="geometry" />
        </mxCell>
        <mxCell id="YdYl9NV35ADIAqtEzGCp-2" value="" style="ellipse;whiteSpace=wrap;html=1;fontFamily=Georgia;direction=west;" vertex="1" parent="1">
          <mxGeometry x="350" y="440" width="120" height="80" as="geometry" />
        </mxCell>
        <mxCell id="YdYl9NV35ADIAqtEzGCp-3" value="" style="curved=1;endArrow=classic;html=1;rounded=0;fontFamily=Georgia;" edge="1" parent="1" source="YdYl9NV35ADIAqtEzGCp-2">
          <mxGeometry width="50" height="50" relative="1" as="geometry">
            <mxPoint x="400" y="470" as="sourcePoint" />
            <mxPoint x="210" y="380" as="targetPoint" />
            <Array as="points">
              <mxPoint x="500" y="380" />
              <mxPoint x="350" y="360" />
            </Array>
          </mxGeometry>
        </mxCell>
      </root>
    </mxGraphModel>
  </diagram>
</mxfile>
